<?xml version="1.0" standalone="no"?><!DOCTYPE svg PUBLIC "-//W3C//DTD SVG 1.1//EN" "http://www.w3.org/Graphics/SVG/1.1/DTD/svg11.dtd"><svg t="1756734834687" class="icon" viewBox="0 0 1024 1024" version="1.1" xmlns="http://www.w3.org/2000/svg" p-id="1624" xmlns:xlink="http://www.w3.org/1999/xlink" width="200" height="200"><path d="M862.3 582.5h-0.1L750 583l0.1-114.2L873 411.7c12.5-5.8 18-20.7 12.1-33.2-5.8-12.5-20.7-18-33.2-12.1l-109.3 50.8c-3.3-7.5-7.5-14.5-12.7-20.9l-51.5-63c-7.9-9.7-18.3-17-30.1-21.1-5.5-2-11.2-3.2-16.9-3.7l-57.4-110v-0.1l43-52.4c8.8-10.7 7.2-26.4-3.4-35.2-10.7-8.8-26.4-7.2-35.2 3.4L520.3 185h-16l-58-70.8c-8.7-10.7-24.5-12.3-35.2-3.5-10.7 8.7-12.3 24.5-3.5 35.2l42.9 52.4v0.1L392.9 308c-6.2 0.4-12.4 1.6-18.4 3.7-11.8 4.1-22.2 11.4-30.1 21.1l-51.6 62.9c-5.2 6.4-9.5 13.4-12.8 20.9l-107.8-50.4c-12.5-5.8-27.4-0.4-33.2 12.1-5.8 12.5-0.4 27.4 12.1 33.2l121.4 56.7-0.1 114.9-110.8-0.7h-0.2c-13.7 0-24.9 11.1-25 24.9-0.1 13.8 11 25.1 24.9 25.1l111.1 0.7v43.3c0 28.5 6.9 56.1 19.9 80.7l-91.8 96.8c-9.5 10-9.1 25.8 0.9 35.3 4.8 4.6 11 6.9 17.2 6.9 6.6 0 13.2-2.6 18.1-7.8l85.6-90.3c3.5 3.5 7.1 6.9 10.9 10.1 0.8 0.7 1.6 1.3 2.5 1.9l160.8 104.8c4.1 2.7 8.9 4.1 13.6 4.1h1.4c4.7 0 9.5-1.4 13.6-4l161-104.5c0.9-0.6 1.7-1.2 2.5-1.9 4.2-3.5 8.2-7.3 12-11.1l85.8 90.8c4.9 5.2 11.5 7.8 18.2 7.8 6.2 0 12.3-2.3 17.2-6.8 10-9.5 10.5-25.3 1-35.3l-92.3-97.7c12.6-24.2 19.3-51.3 19.4-79.3v-44l112.4-0.5c13.8-0.1 25-11.3 24.9-25.1 0.1-13.6-11.1-24.8-24.9-24.8z m-377 265.4l-120.8-78.7c-26.8-23.3-42.2-57-42.1-92.6l0.1-62.4c0.4-1.8 0.7-3.7 0.7-5.7s-0.2-4-0.7-5.9l0.1-144c0.8-3.5 0.9-7 0.3-10.5 0.8-7.6 3.9-14.8 8.7-20.7l51.6-62.9c2.1-2.6 4.9-4.5 8-5.6 3.6-1.3 7.5-1.4 11.2-0.3l70.4 20.9c7.7 2.3 13 9.4 13 17.4l-0.5 451zM536 331.6c-9.2 2.7-17.5 7.3-24.5 13.3-7-6-15.3-10.6-24.5-13.3l-43.2-12.8 44-83.7H536.8l43.7 83.5-44.5 13z m121.6 437.9l-121 78.5 0.4-451c0-8 5.4-15.2 13-17.4l70.4-20.8c3.7-1.1 7.6-1 11.2 0.3 3.1 1.1 5.9 3.1 8 5.6l51.5 63c5.8 7 8.9 15.9 8.9 25l-0.1 224.3c0 35.6-15.4 69.2-42.3 92.5z" fill="#03dcf7" p-id="1625"></path></svg>