<?xml version="1.0" standalone="no"?><!DOCTYPE svg PUBLIC "-//W3C//DTD SVG 1.1//EN" "http://www.w3.org/Graphics/SVG/1.1/DTD/svg11.dtd"><svg t="1756734993449" class="icon" viewBox="0 0 1024 1024" version="1.1" xmlns="http://www.w3.org/2000/svg" p-id="3925" xmlns:xlink="http://www.w3.org/1999/xlink" width="200" height="200"><path d="M786.944 476.16s39.936-52.224 67.584-63.488c23.552-9.728 22.528 97.28 15.36 129.536-7.68 31.744-41.472 87.04-91.136 91.136-49.664 2.56 8.192-157.184 8.192-157.184M244.224 476.16s-39.936-52.224-67.584-63.488c-23.552-9.728-22.528 97.28-15.36 129.536 7.68 31.744 41.472 87.04 91.136 91.136 49.664 4.096-8.192-157.184-8.192-157.184" fill="#9E9E26" p-id="3926"></path><path d="M701.44 543.744H333.824c-72.192 0-131.584-59.392-131.584-131.584V310.784C201.728 173.568 314.368 61.44 451.584 61.44h131.584c137.216 0 249.344 112.128 249.344 249.344v101.888c0 72.192-58.368 131.072-131.072 131.072" fill="#151A43" p-id="3927"></path><path d="M349.184 876.544h334.848v27.136H349.184z" fill="#CFD8DC" p-id="3928"></path><path d="M551.424 962.56H476.16c-45.568 0-82.944-37.376-82.944-82.944v-6.656c0-45.568 37.376-82.944 82.944-82.944h75.264c45.568 0 82.944 37.376 82.944 82.944v6.656c-0.512 46.08-37.376 82.944-82.944 82.944" fill="#9E9E26" p-id="3929"></path><path d="M549.376 858.112H482.304c-125.952 0-229.376-103.424-229.376-229.376V343.04c0-61.952 51.2-112.128 112.128-112.128h302.08c61.952 0 112.128 51.2 112.128 112.128v284.672c0 126.976-103.424 230.4-229.888 230.4" fill="#AFB42B" p-id="3930"></path><path d="M352.768 924.16h-13.824c-8.192 0-14.336-6.656-14.336-14.336v-40.448c0-8.192 6.656-14.336 14.336-14.336h13.824c8.192 0 14.336 6.656 14.336 14.336v40.448c1.024 8.192-6.144 14.336-14.336 14.336M691.2 924.16h-13.824c-8.192 0-14.336-6.656-14.336-14.336v-40.448c0-8.192 6.656-14.336 14.336-14.336h13.824c8.192 0 14.336 6.656 14.336 14.336v40.448c0 8.192-6.144 14.336-14.336 14.336" fill="#B0BEC5" p-id="3931"></path><path d="M556.032 390.656c-1.024-4.096-5.12-6.656-9.216-5.632-0.512 0-9.216 2.56-22.016 5.632l2.048-12.288c1.024-5.632-3.072-10.752-8.704-11.776-5.632-1.024-10.752 3.072-11.776 8.704l-3.072 20.48c-12.288 2.56-25.6 5.632-39.424 8.704l-1.536-15.872c-0.512-5.632-5.632-9.728-11.264-9.216-5.632 0.512-9.728 5.632-9.216 11.264l1.536 18.432c-16.384 3.072-31.232 5.12-43.008 6.144-3.584 0-7.168 0.512-10.752 0.512l-3.072-27.136c-0.512-5.632-5.632-9.728-11.264-8.704-5.632 0.512-9.728 5.632-8.704 11.264l3.072 25.6c-14.336 0.512-29.184 1.024-43.52 1.024l-20.992-29.184c-3.072-4.608-9.728-5.632-14.336-2.048-4.608 3.072-5.632 9.728-2.048 14.336l12.8 17.408H266.24c-4.096 0-7.68 3.584-7.68 7.68s3.584 7.68 7.68 7.68h46.592l10.752 14.848c2.048 2.56 5.12 4.096 8.192 4.096 2.048 0 4.096-0.512 6.144-2.048 4.608-3.072 5.632-9.728 2.048-14.336l-2.56-3.072c11.264 0 23.04-0.512 34.304-1.024l2.048 15.872c0.512 5.12 5.12 9.216 10.24 9.216h1.024c5.632-0.512 9.728-5.632 8.704-11.264l-1.536-14.848c3.584 0 7.168-0.512 10.24-0.512 11.776-1.024 27.136-3.072 43.008-6.144l0.512 8.192c0.512 5.12 5.12 9.216 10.24 9.216h1.024c5.632-0.512 9.728-5.632 9.216-11.264l-1.536-10.752c12.288-2.56 24.576-5.12 35.328-7.68l-1.536 8.704c-1.024 5.632 3.072 10.752 8.704 11.776h1.536c5.12 0 9.216-3.584 10.24-8.704l2.56-16.896c15.872-4.096 27.136-6.656 28.672-7.168 4.096-0.512 6.656-5.12 5.632-9.216zM316.416 511.488s-16.384 8.192-14.336 44.032c2.56 38.4 44.032 53.248 71.168 53.248 35.84 0 62.464-15.872 74.24-38.4 14.336-29.184 11.264-46.08 11.264-46.08l-142.336-12.8zM711.168 511.488s16.384 8.192 14.336 44.032c-2.56 38.4-44.032 53.248-71.168 53.248-35.84 0-62.464-15.872-74.24-38.4-14.336-29.184-11.264-46.08-11.264-46.08l142.336-12.8z" fill="#9E9E26" p-id="3932"></path><path d="M458.24 523.776l-141.824-12.288v0.512c-3.584 30.208 25.6 59.392 65.024 63.488 39.424 4.096 73.728-17.408 77.312-47.616l-0.512-4.096z" fill="#FFFFFF" p-id="3933"></path><path d="M377.856 542.208c11.264 4.096 23.552-1.536 27.648-12.288 1.536-3.584 1.536-7.68 1.536-11.264l-41.472-3.584c-3.584 11.264 1.024 23.04 12.288 27.136" fill="#AD1457" p-id="3934"></path><path d="M568.832 523.776l141.824-12.288v0.512c3.584 30.208-25.6 59.392-65.024 63.488-39.424 4.096-73.728-17.408-77.312-47.616l0.512-4.096z" fill="#FFFFFF" p-id="3935"></path><path d="M649.216 542.208c-11.264 4.096-23.552-0.512-27.648-11.776-1.536-3.584-1.536-7.68-1.536-11.264l41.472-3.584c3.584 10.752-1.024 22.528-12.288 26.624" fill="#85BEE5" p-id="3936"></path><path d="M776.192 198.656s-62.464-21.504-74.24 0c0 0.512-0.512 0.512-0.512 1.024v-1.024s-62.464-21.504-74.24 0c0 0-62.464-21.504-74.24 0-0.512 0.512-0.512 1.024-1.024 2.048-0.512-1.024-0.512-2.048-0.512-2.048s-61.952-20.992-74.24-0.512c-8.192-2.56-62.464-19.456-73.216 0.512 0 0.512-0.512 0.512-0.512 1.024v-1.024s-62.464-21.504-74.24 0c0 0.512-0.512 1.024-0.512 1.024v-0.512s-62.464-21.504-74.24 0c-11.776 21.504 0 72.192 0 72.192s17.92-22.528 24.064 0c4.096 13.824-6.656 34.304 2.048 45.568 14.336 17.92 40.448 2.048 35.328-19.456s-13.824-40.448 6.144-45.568c0.512 0 1.536-0.512 2.048-1.024s23.552-2.56 29.696 19.456c4.096 13.824-6.656 34.304 2.048 45.568 14.336 17.92 40.448 2.048 35.328-19.456-5.632-21.504-13.824-40.448 6.144-45.568 0.512 0 1.536-0.512 2.048-1.024v1.024s23.552-2.56 29.696 19.456c4.096 13.824-6.656 34.304 2.048 45.568 14.336 17.92 40.448 2.048 35.328-19.456-5.632-21.504-13.824-40.448 6.144-45.568 0 0 23.552-2.56 29.696 19.456 4.096 13.824-6.656 34.304 2.048 45.568 14.336 17.92 40.448 2.048 35.328-19.456-5.632-21.504-13.824-40.448 6.144-45.568 1.024 0 1.536-0.512 2.56-1.024v1.024s23.552-2.56 29.696 19.456c4.096 13.824-6.656 34.304 2.048 45.568 14.336 17.92 40.448 2.048 35.328-19.456-5.632-21.504-13.824-40.448 6.144-45.568 0.512 0 1.024-0.512 1.536-0.512v0.512s23.552-2.56 29.696 19.456c4.096 13.824-6.656 34.304 2.048 45.568 14.336 17.92 40.448 2.048 35.328-19.456-5.632-21.504-13.824-40.448 6.144-45.568 0.512 0 1.536-0.512 2.048-1.024v1.024s23.552-2.56 29.696 19.456c4.096 13.824-6.656 34.304 2.048 45.568 14.336 17.92 40.448 2.048 35.328-19.456-5.632-21.504-13.824-40.448 6.144-45.568 17.408-4.096 4.608-52.224 4.608-52.224zM591.872 716.8c-2.048 0-3.584-0.512-5.12-2.048 0 0-21.504-17.92-69.12-17.92s-69.12 17.92-69.632 17.92c-3.072 2.56-8.192 2.56-10.752-1.024s-2.56-8.192 0.512-10.752c1.024-1.024 25.6-22.016 79.36-22.016s78.336 20.992 79.36 22.016c3.072 2.56 3.584 7.68 0.512 10.752-0.512 2.048-3.072 3.072-5.12 3.072z" fill="#151A43" p-id="3937"></path></svg>