<?xml version="1.0" standalone="no"?><!DOCTYPE svg PUBLIC "-//W3C//DTD SVG 1.1//EN" "http://www.w3.org/Graphics/SVG/1.1/DTD/svg11.dtd"><svg t="1756734963299" class="icon" viewBox="0 0 1024 1024" version="1.1" xmlns="http://www.w3.org/2000/svg" p-id="1988" xmlns:xlink="http://www.w3.org/1999/xlink" width="200" height="200"><path d="M781.824 561.152s33.28-44.032 57.344-53.76c19.456-8.704 18.944 81.408 12.288 108.544s-35.328 72.704-76.288 75.776c-41.984 3.584 6.656-130.56 6.656-130.56zM263.168 561.152s-33.28-44.032-57.344-53.76c-19.456-8.704-18.944 81.408-12.288 108.544 7.168 26.624 35.328 72.704 76.288 75.776s-6.656-130.56-6.656-130.56z" fill="#D6A7BA" p-id="1989"></path><path d="M778.24 541.696c0-109.056-113.664-197.12-255.488-197.12h-1.024C379.904 344.576 266.24 433.152 266.24 541.696c0 7.68 0.512 14.336 1.536 22.016-0.512 46.08 1.536 125.952 24.064 176.64 54.784 121.344 156.672 185.856 228.352 188.416h2.56c72.192-2.56 174.08-67.072 228.352-188.416 22.528-51.2 25.088-130.56 24.064-176.64 2.048-7.68 3.072-14.848 3.072-22.016z" fill="#EAC5D3" p-id="1990"></path><path d="M834.56 419.328c-48.64-13.312-77.824-44.544-77.824-44.544s-20.992-143.36-55.808-216.064c-35.328-72.704-67.072-64-88.576-61.44-21.504 3.072-61.44 61.44-91.136 61.44S451.072 99.84 429.568 97.28c-21.504-3.072-53.248-10.752-88.576 61.44-35.328 72.704-55.808 216.064-55.808 216.064s-29.696 31.232-77.824 44.544c-75.776 20.992-82.432 16.896-82.432 16.896s29.696 41.984 96.256 70.144c65.024 26.624 202.752 49.664 300.032 48.128 97.28 1.024 233.984-21.504 298.496-48.128 67.072-27.648 96.256-70.144 96.256-70.144s-5.12 3.584-81.408-16.896z" p-id="1991"></path><path d="M744.448 306.176s-106.496 45.568-223.232 48.128c-116.224-2.56-223.232-48.128-223.232-48.128L281.6 394.752s68.096 58.368 239.104 58.88c170.496-1.024 239.104-58.88 239.104-58.88l-15.36-88.576z" fill="#546E7A" p-id="1992"></path><path d="M631.808 771.072c-14.336-1.024-19.968 8.704-58.368 14.848l-12.288 1.536c-9.216 1.024-22.528 1.536-37.376 1.536-14.848 0-28.16-0.512-37.376-1.536-4.096-0.512-8.192-0.512-12.288-1.536-37.888-7.168-44.032-16.384-58.368-14.848-14.848 1.024-27.136 35.328 22.528 57.856 17.92 8.192 35.84 11.776 50.688 12.8 9.728 1.024 22.016 2.56 34.816 2.56 13.312 0 25.6-0.512 34.816-2.56 14.848-1.024 32.768-4.608 50.688-12.8 50.176-23.04 37.376-56.832 22.528-57.856z" fill="#880E4F" p-id="1993"></path><path d="M313.344 585.216s27.648-7.168 74.752 1.536c46.592 8.704 75.776 39.936 75.776 39.936s-30.72 25.088-75.264 17.408c-66.56-11.264-75.264-58.88-75.264-58.88z" fill="#FFFFFF" p-id="1994"></path><path d="M417.28 599.552c0-1.024 0-2.56-0.512-3.584-8.704-4.096-18.432-7.168-29.696-9.216-8.704-1.536-16.384-2.56-23.552-3.584-3.072 4.608-4.608 9.728-4.608 15.36 0 16.384 12.8 28.672 28.672 28.672 16.896 1.024 29.696-11.776 29.696-27.648z" fill="#00897B" p-id="1995"></path><path d="M379.904 586.24c-1.536 1.024-3.072 2.56-3.584 4.096-4.096 6.144-1.536 14.848 5.12 18.944 6.144 4.096 14.848 1.536 18.944-5.12 2.56-4.096 2.56-9.216 0-13.312-4.608-1.024-8.704-2.56-13.824-3.584-2.048-0.512-4.096-0.512-6.656-1.024z" p-id="1996"></path><path d="M734.72 585.216s-27.648-7.168-74.752 1.536c-46.592 8.704-75.776 39.936-75.776 39.936s30.72 25.088 75.264 17.408c66.048-11.264 75.264-58.88 75.264-58.88z" fill="#FFFFFF" p-id="1997"></path><path d="M630.784 599.552c0-1.024 0-2.56 0.512-3.584 8.704-4.096 18.432-7.168 29.696-9.216 8.704-1.536 16.384-2.56 23.552-3.584 3.072 4.608 4.608 9.728 4.608 15.36 0 16.384-12.8 28.672-28.672 28.672-16.896 1.024-29.696-11.776-29.696-27.648z" fill="#00897B" p-id="1998"></path><path d="M667.648 586.24c1.024 1.024 3.072 2.56 3.584 4.096 4.096 6.144 1.536 14.848-5.12 18.944-6.144 4.096-14.848 1.536-18.944-5.12-2.56-4.096-2.56-9.216 0-13.312 4.608-1.024 8.704-2.56 13.824-3.584 2.56-0.512 5.12-0.512 6.656-1.024z" p-id="1999"></path><path d="M418.816 777.216s-2.56 22.528 3.072 26.112c5.632 3.072 12.8-18.944 12.8-18.944l-15.872-7.168zM438.784 785.408s-1.024 22.528 4.096 25.088 14.848-18.944 14.848-18.944l-18.944-6.144zM464.384 792.064s0 22.528 7.68 25.088c3.072 1.024 16.384-19.968 16.384-19.968l-24.064-5.12zM495.616 798.208s8.192 30.208 13.312 28.672c4.096-0.512 13.312-27.136 13.312-27.136l-26.624-1.536zM527.36 799.744s7.68 28.672 12.288 28.672c6.144 0 13.312-29.696 13.312-29.696l-25.6 1.024zM562.176 798.208s7.168 27.136 10.24 26.624c10.24-3.072 9.216-30.208 9.216-30.208l-19.456 3.584zM590.848 791.552s0 23.04 7.68 22.528c8.192-1.024 10.752-28.16 10.752-28.16l-18.432 5.632zM618.496 781.312l9.728-4.608s2.56 23.04-2.56 24.064c-4.608 1.024-12.8-17.408-12.8-17.408l5.632-2.048zM422.912 810.496s8.192-14.336 10.24-12.8c4.096 3.072 4.096 23.552 4.096 23.552s-13.312-4.608-14.336-10.752zM446.464 826.368s9.216 3.072 14.336 4.096c2.56 0.512 0-20.992-1.536-22.016-0.512-1.024-12.288 6.144-12.8 17.92zM476.672 832.512s4.096 2.56 19.456 3.584c7.68 0.512-4.608-26.112-4.608-26.112s-13.824 13.312-14.848 22.528zM514.56 836.096c-1.024 1.024 12.288 2.56 19.456 1.024 5.12-0.512-9.728-22.528-9.728-22.528s-6.144 11.776-9.728 21.504zM549.888 837.12s2.56 0 10.24-1.024c8.704-0.512 11.776-1.536 11.776-1.536l-14.336-22.016-7.68 24.576zM581.632 832.512s11.776-3.072 16.896-5.632c4.608-3.072-11.776-19.968-11.776-19.968l-5.12 25.6zM612.352 820.736s1.024-1.024 8.192-5.12c7.168-4.608 7.168-5.632 7.168-5.632s-9.216-13.312-12.288-14.336c-2.56-1.024-2.56 24.576-3.072 25.088z" fill="#FFFFFF" p-id="2000"></path><path d="M659.456 700.416s17.92 19.456 19.456 33.28c1.024 13.824 27.648-1.024 38.912-22.528 10.752-20.992 8.192-41.472 0-40.448-8.192 1.536-58.368 29.696-58.368 29.696zM734.72 663.04s10.752 13.824 8.704 29.696c-3.072 14.848 25.6-30.72 17.408-46.08-7.68-16.384-26.112 16.384-26.112 16.384zM367.616 812.544s-17.408-50.688-39.424-73.728c-25.6-26.112-16.896 25.6-12.8 31.744 4.608 6.656 32.256 59.904 52.224 41.984zM359.424 695.296s-33.28 20.992-7.68 36.352c26.624 16.384 41.472 0.512 30.72-10.24s1.536-22.016-8.192-28.672c-9.728-7.168-14.848 2.56-14.848 2.56zM311.296 668.672s24.064 26.112 11.776 36.352c-12.8 10.24-38.912 4.608-30.72-18.432 8.704-22.528 18.944-17.92 18.944-17.92zM287.232 613.888c0.512-8.192 10.752-9.728 14.848-3.584 7.68 13.312 14.336 30.72 7.168 38.912-11.264 10.752-23.552-9.216-22.016-35.328z" fill="#D8AFC0" p-id="2001"></path></svg>