<?xml version="1.0" standalone="no"?><!DOCTYPE svg PUBLIC "-//W3C//DTD SVG 1.1//EN" "http://www.w3.org/Graphics/SVG/1.1/DTD/svg11.dtd"><svg t="1756734944652" class="icon" viewBox="0 0 1024 1024" version="1.1" xmlns="http://www.w3.org/2000/svg" p-id="6099" xmlns:xlink="http://www.w3.org/1999/xlink" width="200" height="200"><path d="M501.44256 393.66144m-241.71008 0a241.71008 241.71008 0 1 0 483.42016 0 241.71008 241.71008 0 1 0-483.42016 0Z" fill="#FFC41F" p-id="6100"></path><path d="M306.1504 547.79392s-64.80896 18.2784-103.34208 116.51584c-48.19456 122.87488 40.28416 114.23232 40.28416 114.23232s61.30176-41.11872 73.56416 13.70624c12.2624 54.83008 38.53312 111.93344 70.06208 73.10336 31.52896-38.8352 52.54656-57.1136 73.56416-29.70112 21.0176 27.41248 38.82496 88.86272 80.56832 86.96832 77.06624-3.50208 80.56832-153.22624 110.34624-112.1024 29.77792 41.11872 64.93184 48.69632 85.83168-14.00832 3.50208-10.51136-5.25824-70.52288 45.53728-47.67744s98.08384 25.1392 92.83072-18.27328c-5.25312-43.41248-29.7728-89.09824-54.29248-118.79936-24.51968-29.696-73.56416-61.67552-94.58176-52.54144" fill="#FFC41F" p-id="6101"></path><path d="M485.6832 650.73152c-153.33888 0-278.08768-124.7488-278.08768-278.08768S332.34432 94.55616 485.6832 94.55616s278.08768 124.7488 278.08768 278.08768c0 153.33376-124.7488 278.08768-278.08768 278.08768z m0-525.46048c-136.40192 0-247.36768 110.97088-247.36768 247.36768s110.96576 247.36768 247.36768 247.36768c136.3968 0 247.36768-110.96576 247.36768-247.36768S622.08 125.27104 485.6832 125.27104z" fill="#2E0C08" p-id="6102"></path><path d="M357.38624 331.03872m-42.0352 0a42.0352 42.0352 0 1 0 84.0704 0 42.0352 42.0352 0 1 0-84.0704 0Z" fill="#2E0C08" p-id="6103"></path><path d="M369.42336 351.488a5.10464 5.10464 0 0 1-3.61984-1.50016l-28.9024-28.9024a5.11488 5.11488 0 1 1 7.23968-7.23968l28.9024 28.9024a5.11488 5.11488 0 0 1-3.61984 8.73984z" fill="#FFFFFF" p-id="6104"></path><path d="M340.52608 350.83264a5.11488 5.11488 0 0 1-3.61984-8.73984l28.9024-28.9024a5.11488 5.11488 0 1 1 7.23968 7.23968l-28.9024 28.9024a5.10464 5.10464 0 0 1-3.61984 1.50016z" fill="#FFFFFF" p-id="6105"></path><path d="M600.41216 331.03872m-42.0352 0a42.0352 42.0352 0 1 0 84.0704 0 42.0352 42.0352 0 1 0-84.0704 0Z" fill="#2E0C08" p-id="6106"></path><path d="M612.44928 351.488a5.10464 5.10464 0 0 1-3.61984-1.50016l-28.9024-28.9024a5.11488 5.11488 0 1 1 7.23968-7.23968l28.9024 28.9024a5.11488 5.11488 0 0 1-3.61984 8.73984z" fill="#FFFFFF" p-id="6107"></path><path d="M583.552 350.83264a5.11488 5.11488 0 0 1-3.61984-8.73984l28.9024-28.9024a5.11488 5.11488 0 1 1 7.23968 7.23968l-28.9024 28.9024a5.12 5.12 0 0 1-3.61984 1.50016z" fill="#FFFFFF" p-id="6108"></path><path d="M484.03456 536.73984a346.35264 346.35264 0 0 1-82.39616-9.97888c-76.37504-18.71872-123.99616-56.5248-125.98272-58.12736a10.24 10.24 0 0 1 12.83072-15.96928c0.45568 0.36864 46.6688 36.90496 118.88128 54.40512 96.33792 23.3472 191.01184 3.57376 281.37984-58.78784a10.24 10.24 0 0 1 11.62752 16.85504c-79.41632 54.79936-154.33216 71.6032-216.34048 71.6032z" fill="#2E0C08" p-id="6109"></path><path d="M312.94976 506.36288a10.22976 10.22976 0 0 1-9.99424-12.49792c5.1968-23.02464 22.01088-39.80288 22.72256-40.50432a10.24 10.24 0 1 1 14.39232 14.5664c-0.13312 0.13312-13.29664 13.40928-17.14688 30.44864a10.22976 10.22976 0 0 1-9.97376 7.9872zM350.37184 517.53472a10.24512 10.24512 0 0 1-9.86624-7.52128c-1.99168-7.22432 2.15552-18.53952 12.32896-33.62816a10.24 10.24 0 0 1 16.98304 11.4432c-4.44928 6.61504-8.74496 14.89408-9.3184 17.89952a10.24 10.24 0 0 1-10.12736 11.80672zM385.83296 554.97216a10.24 10.24 0 0 1-10.11712-8.73472c-3.42016-22.97344 16.91648-67.22048 19.24608-72.192a10.24512 10.24512 0 0 1 18.54464 8.69376c-7.78752 16.62464-19.4304 47.744-17.536 60.48768a10.24 10.24 0 0 1-10.1376 11.74528zM442.9824 553.00608c-4.48512 0-8.6016-2.9696-9.86112-7.5008-6.656-23.91552 0.88576-47.98464 1.20832-48.9984a10.24 10.24 0 1 1 19.51232 6.2208c-0.11776 0.37888-5.94432 19.4816-0.99328 37.28896a10.24 10.24 0 0 1-9.86624 12.98944zM534.7328 549.28384a10.24 10.24 0 0 1-9.84064-13.10208c4.49024-15.46752-4.43392-30.07488-4.52608-30.22336a10.26048 10.26048 0 0 1 3.21536-14.09536 10.20416 10.20416 0 0 1 14.07488 3.1232c0.57344 0.90112 14.02368 22.36928 6.90688 46.90944a10.24512 10.24512 0 0 1-9.8304 7.38816zM577.63328 530.01216a10.24 10.24 0 0 1-10.24-10.24c0-10.1632-3.60448-17.51552-3.64544-17.5872a10.24 10.24 0 1 1 18.1504-9.49248c0.60928 1.17248 5.97504 11.86304 5.97504 27.07968a10.24 10.24 0 0 1-10.24 10.24zM661.7088 499.79392a10.24 10.24 0 0 1-10.24-10.24c0-10.15808-3.6096-17.5104-3.64544-17.58208a10.24 10.24 0 1 1 18.14016-9.50272c0.6144 1.17248 5.98528 11.86816 5.98528 27.0848a10.24 10.24 0 0 1-10.24 10.24zM626.90816 533.29408a10.24 10.24 0 0 1-10.19392-11.31008c2.14016-20.34176-12.25728-39.81312-12.40064-40.00256a10.24 10.24 0 0 1 16.27136-12.4416c0.79872 1.04448 19.51744 25.90208 16.50176 54.58432a10.25024 10.25024 0 0 1-10.17856 9.16992z" fill="#2E0C08" p-id="6110"></path><path d="M502.0416 917.00736c-38.19008 0.00512-58.5728-37.09952-75.0336-67.05152-5.49888-10.00448-10.69056-19.456-15.6928-25.97888-2.01728-2.63168-5.8624-7.05536-8.92928-7.10144h-0.08192c-10.2912 0-32.9728 27.93984-40.43776 37.13536-15.21664 18.74432-30.21312 19.90144-40.12032 17.57696-32.29184-7.59296-49.47968-64.03584-56.85248-97.00352-2.83136-12.66176-7.99232-14.73536-9.69216-15.41632-11.1104-4.46464-31.98464 5.57568-40.35584 11.136a15.49824 15.49824 0 0 1-7.03488 2.5088c-1.53088 0.16896-37.94432 3.36896-58.61376-23.98208-17.93536-23.7312-17.08032-61.12256 2.53952-111.15008 40.85248-104.1408 110.52544-124.8512 113.46944-125.68064a15.36 15.36 0 1 1 8.43776 29.53728c-2.57024 0.77312-58.46528 18.5344-93.30688 107.3664-14.96064 38.144-17.3568 67.01056-6.73792 81.26464 7.77728 10.43456 21.8368 11.9808 28.1344 12.11392 10.88-6.48192 40.24832-21.46304 64.8448-11.65312 10.00448 3.9936 23.03488 13.70112 28.30336 37.25312 10.71616 47.9232 26.27584 72.00256 33.90976 73.79968 1.39776 0.34816 4.92544-1.72544 9.23648-7.02976 24.9088-30.68416 43.46368-48.49664 64.28672-48.49664l0.50688 0.00512c12.22144 0.16896 23.28576 6.6048 32.88576 19.1232 6.42048 8.37632 12.16 18.816 18.23744 29.8752 16.74752 30.46912 30.1312 52.14208 49.44384 51.09248 33.37728-1.51552 50.48832-42.06592 64.24576-74.6496 10.42944-24.71424 17.9712-42.5728 34.55488-44.4672 9.14432-1.03936 17.50528 3.43552 24.68352 13.34784 12.35456 17.05984 25.46176 26.81856 34.048 25.49248 8.64256-1.3312 17.60256-14.0544 24.6272-34.93888 0.2048-1.24928 0.39424-4.51072 0.5376-6.92736 0.88064-15.1296 2.36032-40.45312 21.10976-51.8144 11.74016-7.12192 26.84928-6.61504 44.89728 1.50016 35.81952 16.10752 60.45696 17.33632 68.17792 11.65312 2.92864-2.16064 3.97312-6.89152 3.10272-14.06976-5.15072-42.56768-30.63296-86.32832-50.88768-110.86848-25.06752-30.35648-66.69312-52.5312-76.6208-48.23552a15.33952 15.33952 0 0 1-20.20352-7.96672 15.34976 15.34976 0 0 1 7.96672-20.20352c33.66912-14.64832 90.83392 30.55104 112.54784 56.84736 23.99744 29.07648 51.75296 77.63456 57.7024 126.74048 2.8672 23.65952-6.79424 36.16768-15.40096 42.50624-26.53696 19.50208-73.40544 3.11808-98.98496-8.38144-9.21088-4.15232-14.57152-4.33664-16.37376-3.2512-4.94592 2.9952-5.97504 20.67968-6.36416 27.33568-0.35328 6.09792-0.6144 10.51136-1.92 14.4384-11.2896 33.8688-27.85792 52.7104-49.23904 55.99744-14.22336 2.18624-36.02432-2.03776-60.37504-33.52576-2.97472 5.78048-6.46656 14.0544-9.28256 20.73088-15.29344 36.23936-38.40512 90.99776-91.15136 93.39392-0.93184 0.0512-1.84832 0.07168-2.74432 0.07168z" fill="#2E0C08" p-id="6111"></path><path d="M484.80256 563.29216a10.24 10.24 0 0 1-8.2944-16.23552c6.16448-8.53504 1.21344-29.66016-2.1504-38.54848a10.24 10.24 0 1 1 19.15392-7.2448c1.45408 3.84 13.7984 38.1184-0.39936 57.78432a10.25536 10.25536 0 0 1-8.30976 4.24448z" fill="#2E0C08" p-id="6112"></path></svg>