<?xml version="1.0" standalone="no"?><!DOCTYPE svg PUBLIC "-//W3C//DTD SVG 1.1//EN" "http://www.w3.org/Graphics/SVG/1.1/DTD/svg11.dtd"><svg t="1756735038686" class="icon" viewBox="0 0 1024 1024" version="1.1" xmlns="http://www.w3.org/2000/svg" p-id="7534" xmlns:xlink="http://www.w3.org/1999/xlink" width="200" height="200"><path d="M511.57504 932.25984c-209.59744 0-380.11392-170.5216-380.11392-380.11392S301.9776 172.032 511.57504 172.032c209.59232 0 380.11392 170.5216 380.11392 380.11392-0.00512 220.25216-159.86176 380.11392-380.11392 380.11392z m0-729.50784c-192.65536 0-349.39392 156.73856-349.39392 349.39392s156.73856 349.39392 349.39392 349.39392c202.45504 0 349.39392-146.93888 349.39392-349.39392-0.00512-192.66048-156.73856-349.39392-349.39392-349.39392z" fill="#2E0C08" p-id="7535"></path><path d="M234.89536 347.3408s-57.86112-44.3136-59.4176-113.72032c-1.55648-69.4016 23.6032-114.93888 47.54432-119.6032 24.6784-4.80768 5.26848 31.07328 27.99616 74.36288 22.2976 42.47552 110.37184 67.38432 110.37184 67.38432S348.672 330.75712 293.89312 367.71328c-33.85344 22.84032-58.99776-20.37248-58.99776-20.37248z" fill="#FFFFFF" p-id="7536"></path><path d="M227.82464 347.3408s-65.71008-32.53248-67.27168-101.9392c-1.55648-69.4016 41.63584-112.13312 46.05952-136.12544 0.8704-4.72576-1.51552 81.6384 21.21216 124.92288 22.2976 42.47552 94.2848 75.42272 94.2848 75.42272s21.77536 7.82848-33.00352 44.78976c-33.85856 22.84544-61.28128-7.07072-61.28128-7.07072z" fill="#FFC41F" p-id="7537"></path><path d="M266.59328 379.38688c-30.6688 0-54.14912-30.65344-60.74368-40.24832-11.04384-8.73984-53.632-46.78656-55.14752-114.60608-1.59744-71.15264 23.62368-127.94368 59.96032-135.02976 2.47808-0.48128 4.75136-0.7168 6.95808-0.7168 23.50592 0 25.21088 22.81472 26.22976 36.44928 0.96768 12.96384 2.17088 29.09696 11.34592 46.57152 15.72864 29.96736 78.21312 53.28896 100.96128 59.7504a15.36 15.36 0 0 1 10.9568 17.34656c-0.5632 3.328-14.50496 81.94048-74.05056 122.11712-8.23808 5.55008-17.14176 8.36608-26.4704 8.36608zM212.68992 121.20576c-13.53216 7.99232-32.59392 43.94496-31.27808 102.63552 1.37216 60.94848 44.20096 91.77088 44.63616 92.07296 1.64864 1.16224 3.05152 2.63168 4.13184 4.33664 4.7104 7.35232 21.56032 28.416 36.41344 28.416 3.13856 0 6.17984-1.01888 9.28768-3.11808 35.80416-24.15104 51.82464-67.34336 57.85088-88.86272-27.71968-9.4464-86.07744-33.14176-105.73824-70.59968-12.1344-23.11168-13.72672-44.44672-14.78144-58.56256-0.14848-1.95584-0.31744-4.23936-0.52224-6.31808z" fill="#2E0C08" p-id="7538"></path><path d="M768.23552 347.3408s57.86112-44.3136 59.4176-113.72032c1.55648-69.4016-23.59808-114.93888-47.54944-119.6032-24.67328-4.80768-5.26336 31.07328-27.99104 74.36288-22.2976 42.47552-110.38208 67.38432-110.38208 67.38432s12.7232 74.99264 67.49696 111.9488c33.8688 22.84032 59.008-20.37248 59.008-20.37248z" fill="#FFFFFF" p-id="7539"></path><path d="M775.30624 347.3408s65.7152-32.53248 67.28192-101.9392c1.55648-69.4016-41.64608-112.13312-46.06464-136.12544-0.8704-4.72576 1.51552 81.6384-21.21728 124.92288-22.29248 42.47552-94.27456 75.42272-94.27456 75.42272s-21.78048 7.82848 32.99328 44.78976c33.85856 22.84544 61.28128-7.07072 61.28128-7.07072z" fill="#FFC41F" p-id="7540"></path><path d="M736.5376 379.38688c-9.33376 0-18.23744-2.816-26.4704-8.36608-59.55072-40.17664-73.48736-118.78912-74.05056-122.11712a15.37024 15.37024 0 0 1 10.9568-17.34656c22.74816-6.46144 85.23264-29.78304 100.96128-59.74528 9.16992-17.47456 10.37824-33.60768 11.34592-46.57152 1.01888-13.63456 2.72384-36.44928 26.22976-36.44928 2.20672 0 4.48 0.23552 6.95296 0.7168 36.34688 7.08608 61.55776 63.87712 59.96544 135.02976-1.52064 67.8144-44.09856 105.86112-55.14752 114.60608-6.58944 9.58464-30.06976 40.2432-60.74368 40.2432z m-67.10784-122.71104c6.08256 21.55008 22.20032 64.8448 57.82016 88.87808 3.10784 2.09408 6.14912 3.11296 9.28768 3.11296 13.89056 0 30.53568-19.14368 36.41344-28.416 1.08032-1.69984 2.4832-3.1744 4.13696-4.33152 1.71008-1.2288 43.27424-31.73888 44.63104-92.07296 1.31584-58.69056-17.75104-94.64832-31.27808-102.63552-0.2048 2.0736-0.37376 4.36224-0.52736 6.3232-1.05472 14.11584-2.65216 35.44576-14.78144 58.55744-19.65056 37.44256-77.96736 61.1328-105.7024 70.58432z" fill="#2E0C08" p-id="7541"></path><path d="M347.58656 548.04992m-85.82144 0a85.82144 85.82144 0 1 0 171.64288 0 85.82144 85.82144 0 1 0-171.64288 0Z" fill="#2E0C08" p-id="7542"></path><path d="M345.54368 552.1408m-34.7392 0a34.7392 34.7392 0 1 0 69.4784 0 34.7392 34.7392 0 1 0-69.4784 0Z" fill="#CF3924" p-id="7543"></path><path d="M666.35776 548.04992m-85.82656 0a85.82656 85.82656 0 1 0 171.65312 0 85.82656 85.82656 0 1 0-171.65312 0Z" fill="#2E0C08" p-id="7544"></path><path d="M664.32 552.1408m-34.7392 0a34.7392 34.7392 0 1 0 69.4784 0 34.7392 34.7392 0 1 0-69.4784 0Z" fill="#CF3924" p-id="7545"></path><path d="M677.14048 706.09408s-3.67616-1.86368-18.0736 1.81248c-31.72352 8.09472-25.62048 17.47456-144.93696 12.05248-2.65216-0.11776-23.40352-0.84992-26.05568-0.76288-104.98048 3.31776-103.54688-4.37248-135.552-11.28448-10.42432-2.24768-18.07872-1.81248-18.07872-1.81248s-37.9648 5.4272-27.11552 47.01184c12.63616 48.43008 108.08832 75.29984 197.6064 75.89888v-0.4864h1.72032v0.4864c89.5232-0.59904 184.97024-27.4688 197.60128-75.89888 10.84928-41.58976-27.11552-47.01696-27.11552-47.01696z" fill="#CF3924" p-id="7546"></path><path d="M506.65472 839.2448c-0.3072 0-0.60928-0.01536-0.90624-0.04096-0.28672 0.03072-0.5632 0.04096-0.88064 0.04096-89.5744-0.59904-192.69632-27.00288-207.44704-83.55328-4.18304-16.03072-2.64704-29.64992 4.56192-40.48896 10.57792-15.90272 28.9536-18.94912 31.01696-19.24096 0.26624-0.04096 0.59392-0.07168 0.86016-0.09216 0 0 8.73984-0.57856 20.82816 2.02752 6.66624 1.43872 11.83232 2.88256 16.82944 4.27008 14.592 4.0704 27.19232 7.5776 72.58624 7.5776 12.53376 0 26.81344-0.256 43.65824-0.78848l0.91648-0.01024c4.5056 0 23.48032 0.67072 25.92768 0.77824 23.64928 1.0752 42.88512 1.60256 58.80832 1.60256 42.67008 0 53.79072-3.82976 66.66752-8.2688 4.58752-1.57696 9.77408-3.36384 16.46592-5.0688 10.35264-2.65216 18.08896-3.28704 23.0656-1.85856 4.48512 0.82432 20.43392 4.6848 30.0032 19.07712 7.20384 10.83904 8.73984 24.45824 4.56192 40.48896-14.75072 56.5504-117.86752 82.95424-207.44704 83.55328l-0.0768-0.00512z m-171.14624-122.94144c-2.02752 0.41472-11.57632 2.7392-16.55808 10.35264-3.7632 5.76512-4.34176 13.78816-1.7152 23.8592 9.8816 37.86752 89.0624 66.9952 184.80128 68.21376 0.91648-0.29696 1.88928-0.45568 2.89792-0.45568h1.72032c1.05472 0 2.06848 0.15872 3.02592 0.45568 95.68256-1.24416 174.7968-30.36672 184.66304-68.21376 2.64704-10.1376 2.04288-18.21184-1.79712-23.98208-5.5552-8.35584-16.74752-10.2912-16.86016-10.31168a10.38848 10.38848 0 0 1-1.57184-0.34816c-1.18272-0.09728-4.6336-0.07168-12.52352 1.9456-5.86752 1.50016-10.43968 3.07712-14.85312 4.59264-14.61248 5.03296-27.2384 9.38496-73.33376 9.38496-16.23552 0-35.77856-0.53248-59.74016-1.61792-2.77504-0.12288-21.12-0.75776-24.99584-0.75776-17.3312 0.5376-31.8208 0.79872-44.57472 0.79872-48.19456 0-62.04416-3.86048-78.08512-8.33024a253.27616 253.27616 0 0 0-15.64672-3.97824c-7.59296-1.6384-13.26592-1.63328-14.85312-1.60768z" fill="#2E0C08" p-id="7547"></path><path d="M381.04576 727.61856s-5.48864 28.86144 16.98816 43.17184c22.4768 14.30528 23.8336-5.48352 26.56768-15.32416 5.10464-18.39616 5.87264-23.24992 5.87264-23.24992s-38.31296-0.768-49.42848-4.59776zM630.4768 727.23456s5.75488 29.24544-16.72704 43.55584c-22.4768 14.30528-23.82336-5.48352-26.56256-15.32416l-6.13376-22.09792s37.92896-2.304 49.42336-6.13376z" fill="#FFFFFF" p-id="7548"></path></svg>