<?xml version="1.0" standalone="no"?><!DOCTYPE svg PUBLIC "-//W3C//DTD SVG 1.1//EN" "http://www.w3.org/Graphics/SVG/1.1/DTD/svg11.dtd"><svg t="1756734983518" class="icon" viewBox="0 0 1024 1024" version="1.1" xmlns="http://www.w3.org/2000/svg" p-id="3392" xmlns:xlink="http://www.w3.org/1999/xlink" width="200" height="200"><path d="M177.75104 404.6336c-37.5296 31.89248-61.36832 79.40608-61.36832 132.51584 0 96.0256 77.84448 173.8752 173.86496 173.8752 22.9888 0 44.91264-4.5056 64.9984-12.61056 46.17216 22.77376 98.70336 35.73248 154.49088 35.73248 56.01792 0 108.76928-13.06112 155.0848-36.0192a173.30176 173.30176 0 0 0 65.72032 12.9024c96.03072 0 173.87008-77.8496 173.87008-173.8752 0-53.7856-24.42752-101.85728-62.7968-133.74976-10.32192-163.6096-154.93632-293.3248-331.8784-293.3248-177.40288 0-322.32448 130.36544-331.98592 294.5536z" fill="#CFD8DC" p-id="3393"></path><path d="M856.98048 553.02144c0 18.12992 13.85984 32.88064 30.8992 32.88064 3.6096 0 7.06048-0.69632 10.28096-1.90976 1.25952-4.58752 2.33984-9.24672 3.2256-13.97248-3.6352 3.47136-8.32 5.65248-13.50656 5.65248-11.392 0-20.6592-10.15296-20.6592-22.64576 0-12.48256 9.27232-22.64064 20.6592-22.64064 6.7584 0 12.70784 3.62496 16.4864 9.1392 0.00512-0.5632 0.04608-1.13664 0.04608-1.71008 0-4.33152-0.20992-8.61696-0.52736-12.86144a29.23008 29.23008 0 0 0-16.00512-4.80768c-17.03936-0.00512-30.8992 14.7456-30.8992 32.87552z" fill="#AD1457" p-id="3394"></path><path d="M882.59584 608.72192c-32.53248 0-59.00288-26.4704-59.00288-58.99776 0-32.53248 26.4704-59.00288 59.00288-59.00288a58.88 58.88 0 0 1 15.4368 2.11456 175.80032 175.80032 0 0 0-3.39968-11.2384 69.10464 69.10464 0 0 0-12.03712-1.11616c-38.17984 0-69.24288 31.06304-69.24288 69.24288s31.06304 69.23776 69.24288 69.23776c0.24576 0 0.4864-0.03584 0.73728-0.04096 1.82784-3.42528 3.52256-6.93248 5.13024-10.50112-1.93536 0.19456-3.88096 0.30208-5.86752 0.30208z" fill="#AD1457" p-id="3395"></path><path d="M869.4784 642.33472c-0.71168 0.01536-1.38752 0.10752-2.09408 0.10752-52.224 0-94.70976-42.48576-94.70976-94.70976 0-52.21888 42.48576-94.70976 94.70976-94.70976 5.38112 0 10.624 0.55808 15.75936 1.42336a174.848 174.848 0 0 0-6.7328-11.20256 105.1648 105.1648 0 0 0-9.02656-0.45568c-57.87648 0-104.94976 47.0784-104.94976 104.95488 0 55.79776 43.81696 101.44256 98.83648 104.64256a178.71872 178.71872 0 0 0 8.20736-10.05056zM116.41344 539.52c3.77344-5.51424 9.72288-9.1392 16.49152-9.1392 11.39712 0 20.66432 10.15296 20.66432 22.64064 0 12.48768-9.27232 22.64064-20.66432 22.64064-5.18656 0-9.87648-2.176-13.50656-5.64736 0.88576 4.73088 1.96096 9.39008 3.22048 13.97248a29.2352 29.2352 0 0 0 10.28608 1.90976c17.03936 0 30.90432-14.75584 30.90432-32.88576s-13.86496-32.88064-30.90432-32.88064a29.44 29.44 0 0 0-16.01024 4.80256c-0.31232 4.2496-0.52224 8.52992-0.52224 12.86656 0 0.57856 0.03584 1.14688 0.04096 1.72032z" fill="#AD1457" p-id="3396"></path><path d="M138.19392 480.47104c-4.11136 0-8.1152 0.42496-12.032 1.11616a173.53216 173.53216 0 0 0-3.39968 11.2384c4.92544-1.34144 10.0864-2.11968 15.43168-2.11968 32.53248 0 59.00288 26.4704 59.00288 59.00288 0 32.53248-26.46528 58.99776-59.00288 58.99776-1.98144 0-3.93728-0.10752-5.86752-0.30208 1.60256 3.5584 3.30752 7.07584 5.13024 10.50112 0.24576 0.00512 0.4864 0.04096 0.73216 0.04096 38.17984 0 69.24288-31.05792 69.24288-69.23776 0.00512-38.17472-31.05792-69.23776-69.23776-69.23776z" fill="#AD1457" p-id="3397"></path><path d="M153.40032 442.78272c-3.0464 0-6.04672 0.2048-9.02656 0.45568-2.37056 3.65056-4.63872 7.3728-6.7328 11.20256a94.58688 94.58688 0 0 1 15.75936-1.42336c52.224 0 94.70976 42.48576 94.70976 94.71488 0 52.21888-42.48576 94.70976-94.70976 94.70976-0.70656 0-1.38752-0.09728-2.09408-0.10752a171.03872 171.03872 0 0 0 8.21248 10.0352c55.01952-3.19488 98.83648-48.83456 98.83648-104.64256-0.00512-57.86624-47.08352-104.94464-104.95488-104.94464z" fill="#AD1457" p-id="3398"></path><path d="M233.92256 405.26336c3.53792-27.88864 50.74944-44.88192 105.44128-37.94432 54.70208 6.93248 96.16896 35.16928 92.63616 63.05792-3.53792 27.88864-50.74432 44.88192-105.44128 37.93408-54.69696-6.92736-96.16896-35.15392-92.63616-63.04768" p-id="3399"></path><path d="M311.72608 413.312c2.2016-17.38752 21.0176-29.33248 42.02496-26.65984 21.00736 2.6624 36.25984 18.91328 34.048 36.30592-2.2016 17.3824-21.0176 29.32736-42.03008 26.66496-21.00736-2.67776-36.24448-18.93376-34.04288-36.31104" fill="#AD1457" p-id="3400"></path><path d="M348.42112 400.96256a16.5376 16.5376 0 1 1 0 33.07008 16.5376 16.5376 0 0 1 0-33.07008" p-id="3401"></path><path d="M677.95968 366.67904c54.70208-6.9376 101.89824 10.05568 105.4464 37.94432 3.52768 27.88352-37.93408 56.12544-92.6464 63.05792-54.69184 6.93248-101.89312-10.04544-105.43616-37.94944-3.5328-27.89376 37.94432-56.1152 92.63616-63.0528" p-id="3402"></path><path d="M655.25248 385.75104c21.01248-2.66752 39.82848 9.2672 42.04032 26.65472 2.21184 17.39264-13.05088 33.64864-34.03264 36.31104-21.01248 2.6624-39.8336-9.27232-42.04032-26.66496-2.23232-17.38752 13.02528-33.6384 34.03264-36.3008" fill="#AD1457" p-id="3403"></path><path d="M661.13024 400.96256a16.52736 16.52736 0 1 1 0 33.05984 16.52736 16.52736 0 1 1 0-33.05984" p-id="3404"></path><path d="M436.35712 716.97408l-77.35808-67.44064s-83.29728 38.33344-88.58112 43.62752c0 0 18.5088 44.288 46.94016 99.16416 20.49024 40.3456 45.60896 82.64704 67.42528 94.55104 6.61504 3.30752 28.43136 2.6368 34.3808-1.99168 5.18656-4.03456 7.8592-19.6352 8.45824-23.55712 0.08704-1.34656 0.18432-2.58048 0.29184-3.6096l8.44288-140.74368zM660.44928 649.53344l-77.34272 67.44064 8.45824 141.02528c0.09728 0.94208 0.1792 2.03776 0.26112 3.23072 0.5632 3.712 3.24608 19.57888 8.47872 23.6544 5.94432 4.62336 27.76576 5.2992 34.3808 1.99168 21.81632-11.904 46.93504-54.20544 67.42016-94.55104 28.43648-54.87616 46.94016-99.16416 46.94016-99.16416-5.28384-5.28896-88.59648-43.62752-88.59648-43.62752z" fill="#CFD8DC" p-id="3405"></path><path d="M591.04256 853.82144l-8.59136-137.50272H437.01248l-8.59136 137.50272s-0.25088 1.46944-0.50176 3.90144c-0.10752 1.02912-0.20992 2.26816-0.29184 3.6096-0.82432 12.57984-0.01536 37.23776 17.98144 44.0576 32.39424 11.88864 64.128 0.64512 64.128 0.64512s31.72864 11.24352 64.12288-0.64512c18.09408-6.35904 18.82112-31.488 17.9712-44.16a86.81984 86.81984 0 0 0-0.78848-7.40864z" fill="#CFD8DC" p-id="3406"></path><path d="M425.77408 870.34368l19.82976-119.66976-9.91232-10.55744z" fill="#748084" p-id="3407"></path><path d="M592.36864 870.34368l-19.82976-119.66976 10.5728-10.55744z" fill="#748084" p-id="3408"></path><path d="M509.73696 463.7696l-40.99072 184.44288 40.99072 18.5088z" fill="#B0BEC5" p-id="3409"></path><path d="M509.73696 463.7696l40.9856 184.44288-40.9856 18.5088z" fill="#B0BEC5" p-id="3410"></path><path d="M604.928 682.58816l-95.19616 7.2704-95.20128-7.2704-78.6688-46.27456 110.40256 114.37568 15.85664-15.21152s36.36224-0.67072 47.61088-0.67072c11.2384 0 47.59552 0.67072 47.59552 0.67072l15.86688 15.21152 110.40256-114.37568-78.6688 46.27456z" p-id="3411"></path><path d="M353.7152 655.488l93.8752 75.35616h124.288l94.53568-74.04032-87.92576 115.69664-169.90208-14.5408-54.87104-100.48" fill="#AD1457" p-id="3412"></path></svg>